<svg id="Calque_1" data-name="Calque 1" xmlns="http://www.w3.org/2000/svg" viewBox="0 0 183.81 52.85"><defs><style>.cls-1{fill:#f0c400;}</style></defs><title>logo</title><path class="cls-1" d="M34.18,33.2a15.93,15.93,0,0,1-2.62,9.16l3.35,3.29-3.75,3.74L27.73,46a14.67,14.67,0,0,1-8,2.09c-10,0-14.48-7.27-14.52-14.58s4.6-14.7,14.52-14.7S34.06,26,34.18,33.2Zm-23.75.44c.08,4.62,3.15,9.56,9.28,9.56,6.37,0,9.43-5.34,9.23-10.16-.2-4.54-2.58-9.44-9.23-9.44S10.35,28.9,10.43,33.64Z" transform="translate(-5.19 -18.82)"/><path class="cls-1" d="M42.73,27.82V38.18c0,3,1.65,5.3,4.8,5.3s5.08-2.53,5.08-5.54V27.82h4.88V47.66h-4.4L52.77,45a8.87,8.87,0,0,1-6.73,3c-4.76,0-8.23-3.57-8.23-9.72V27.82Z" transform="translate(-5.19 -18.82)"/><path class="cls-1" d="M67.21,22.24c0,3.81-5.81,3.81-5.81,0S67.21,18.42,67.21,22.24Zm-5.37,5.5V47.62h4.92V27.74Z" transform="translate(-5.19 -18.82)"/><path class="cls-1" d="M86.6,27.82v2.33L77.45,42.8h9.23v4.82H70v-2l9.51-13.29H70.68V27.82Z" transform="translate(-5.19 -18.82)"/><path class="cls-1" d="M105.13,71h-6.3l-8.2-9.4h-5.1V71h-5.3V42.79c4.46,0,8.92,0,13.37,0,6.63,0,10.13,4.46,10.13,9.32,0,3.86-1.77,7.75-7.11,8.84l8.51,9.6ZM85.53,47.77v9H93.6c3.38,0,4.82-2.25,4.82-4.5s-1.48-4.5-4.82-4.5Z" transform="translate(-5.19 -18.82)"/><path class="cls-1" d="M132.82,42.87V59c0,8.31-5.1,12.57-12.17,12.57-6.75,0-12.49-4.1-12.49-12.57V42.87h5.26V59c0,5.06,2.89,7.75,7.27,7.75s6.87-2.93,6.87-7.75V42.87Z" transform="translate(-5.19 -18.82)"/><path class="cls-1" d="M155.37,49.62c-1-1.6-3.62-3.13-6.67-3.13-3.94,0-5.82,1.64-5.82,3.73,0,2.45,2.89,3.14,6.26,3.54,5.87.72,11.33,2.25,11.33,9,0,6.26-5.55,9-11.81,9-5.74,0-10.16-1.77-12.25-6.91l4.42-2.29c1.24,3.1,4.5,4.46,7.91,4.46s6.47-1.16,6.47-4.21c0-2.66-2.77-3.74-6.51-4.14-5.74-.69-11-2.21-11-8.52,0-5.78,5.71-8.15,10.89-8.19,4.38,0,8.92,1.24,11,5.58Z" transform="translate(-5.19 -18.82)"/><path class="cls-1" d="M183.74,71V59.62H169.92V71h-5.3V42.87h5.3V54.72h13.82V42.87H189V71Z" transform="translate(-5.19 -18.82)"/></svg>